<svg width="25" height="25" viewBox="0 0 25 25" fill="none" xmlns="http://www.w3.org/2000/svg">
<path d="M21.8752 5.20829L3.12522 5.20829C2.93538 5.20888 2.7493 5.26124 2.58701 5.35972C2.42472 5.4582 2.29236 5.59908 2.20418 5.76719C2.116 5.93531 2.07533 6.12429 2.08657 6.31379C2.0978 6.50329 2.1605 6.68614 2.26793 6.84266L11.6429 20.3843C12.0315 20.9458 12.9669 20.9458 13.3565 20.3843L22.7315 6.84266C22.84 6.68647 22.9036 6.50353 22.9155 6.31371C22.9273 6.12389 22.8869 5.93445 22.7986 5.76599C22.7104 5.59752 22.5776 5.45646 22.4148 5.35814C22.252 5.25981 22.0654 5.20799 21.8752 5.20829Z" fill="#E6E6E6"/>
</svg>
