<svg width="40" height="40" viewBox="0 0 40 40" fill="none" xmlns="http://www.w3.org/2000/svg">
<rect width="40" height="40" rx="20" fill="#EC6834"/>
<path d="M22.5 13.75H17.5C16.125 13.75 15 14.875 15 16.25V22.5C15 23.1875 15.5625 23.75 16.25 23.75H17.5V31.25C17.5 31.9375 18.0625 32.5 18.75 32.5H21.25C21.9375 32.5 22.5 31.9375 22.5 31.25V23.75H23.75C24.4375 23.75 25 23.1875 25 22.5V16.25C25 14.875 23.875 13.75 22.5 13.75Z" fill="#F7F7F7"/>
<path d="M20 12.5C21.3807 12.5 22.5 11.3807 22.5 10C22.5 8.61929 21.3807 7.5 20 7.5C18.6193 7.5 17.5 8.61929 17.5 10C17.5 11.3807 18.6193 12.5 20 12.5Z" fill="#F7F7F7"/>
</svg>
