<svg width="20" height="20" viewBox="0 0 20 20" fill="none" xmlns="http://www.w3.org/2000/svg">
<path d="M17.0056 13.6222C16.1129 12.655 15.0296 11.8831 13.8239 11.3552C12.6182 10.8272 11.3162 10.5547 10 10.5547C8.68379 10.5547 7.38184 10.8272 6.17614 11.3552C4.97045 11.8831 3.88714 12.655 2.99445 13.6222C2.85662 13.7746 2.77952 13.9723 2.77778 14.1778V17.5111C2.7807 17.7302 2.86979 17.9393 3.02575 18.0932C3.18171 18.2471 3.39201 18.3334 3.61111 18.3333H16.3889C16.6099 18.3333 16.8219 18.2455 16.9781 18.0893C17.1344 17.933 17.2222 17.721 17.2222 17.5V14.1667C17.2178 13.965 17.1409 13.7718 17.0056 13.6222Z" fill="#161D39"/>
<path d="M10 9.44444C12.1478 9.44444 13.8889 7.70333 13.8889 5.55555C13.8889 3.40778 12.1478 1.66666 10 1.66666C7.85223 1.66666 6.11111 3.40778 6.11111 5.55555C6.11111 7.70333 7.85223 9.44444 10 9.44444Z" fill="#161D39"/>
</svg>
