<svg width="20" height="20" viewBox="0 0 20 20" fill="none" xmlns="http://www.w3.org/2000/svg">
<path d="M5.83334 9.16666H7.5V10.8333H5.83334V9.16666ZM5.83334 12.5H7.5V14.1667H5.83334V12.5ZM9.16667 9.16666H10.8333V10.8333H9.16667V9.16666ZM9.16667 12.5H10.8333V14.1667H9.16667V12.5ZM12.5 9.16666H14.1667V10.8333H12.5V9.16666ZM12.5 12.5H14.1667V14.1667H12.5V12.5Z" fill="#161D39"/>
<path d="M4.16667 18.3333H15.8333C16.7525 18.3333 17.5 17.5858 17.5 16.6667V5C17.5 4.08083 16.7525 3.33333 15.8333 3.33333H14.1667V1.66666H12.5V3.33333H7.5V1.66666H5.83333V3.33333H4.16667C3.2475 3.33333 2.5 4.08083 2.5 5V16.6667C2.5 17.5858 3.2475 18.3333 4.16667 18.3333ZM15.8333 6.66666L15.8342 16.6667H4.16667V6.66666H15.8333Z" fill="#161D39"/>
</svg>
