<svg width="100" height="100" viewBox="0 0 100 100" fill="none" xmlns="http://www.w3.org/2000/svg">
<path d="M73.4375 33.6328V32.8125C73.4375 27.1094 69.2188 22.0703 61.5234 18.5937C55.0391 15.6641 46.4844 14.0625 37.5 14.0625C28.5156 14.0625 19.9609 15.6641 13.4766 18.5937C5.78125 22.0703 1.5625 27.1094 1.5625 32.8125V48.4375C1.5625 54.1406 5.78125 59.1797 13.4766 62.6562C17.6571 64.4614 22.0567 65.709 26.5625 66.3672V67.1875C26.5625 72.8906 30.7812 77.9297 38.4766 81.4062C44.9609 84.3359 53.5156 85.9375 62.5 85.9375C71.4844 85.9375 80.0391 84.3359 86.5234 81.4062C94.2188 77.9297 98.4375 72.8906 98.4375 67.1875V51.5625C98.4375 42.9297 88.5547 35.9766 73.4375 33.6328ZM89.0625 51.5625C89.0625 54.6094 80.5469 60.3516 64.9219 60.8984C70.4297 57.5781 73.4375 53.2422 73.4375 48.4375V43.125C83.5547 44.9609 89.0625 49.0234 89.0625 51.5625ZM29.6875 57.3438V51.1328C32.2821 51.4154 34.89 51.5589 37.5 51.5625C40.11 51.5589 42.7179 51.4154 45.3125 51.1328V57.3438C42.7212 57.6687 40.1116 57.8252 37.5 57.8125C34.8884 57.8252 32.2788 57.6687 29.6875 57.3438ZM64.0625 45.7422V48.4375C64.0625 50.3125 60.8203 53.2031 54.6875 55.2734V49.4141C57.0315 48.8215 59.319 48.0241 61.5234 47.0312C62.3967 46.6568 63.2448 46.2262 64.0625 45.7422ZM37.5 23.4375C54.6875 23.4375 64.0625 29.6484 64.0625 32.8125C64.0625 35.9766 54.6875 42.1875 37.5 42.1875C20.3125 42.1875 10.9375 35.9766 10.9375 32.8125C10.9375 29.6484 20.3125 23.4375 37.5 23.4375ZM10.9375 48.4375V45.7422C11.7552 46.2262 12.6033 46.6568 13.4766 47.0312C15.681 48.0241 17.9685 48.8215 20.3125 49.4141V55.2734C14.1797 53.2031 10.9375 50.3125 10.9375 48.4375ZM35.9375 67.1875H37.5C38.9062 67.1875 40.3125 67.1484 41.7188 67.0703C42.8516 67.4609 44.0625 67.8516 45.3125 68.1641V74.0234C39.1797 71.9531 35.9375 69.0625 35.9375 67.1875ZM54.6875 76.0938V69.8828C57.2821 70.1654 59.89 70.3089 62.5 70.3125C65.11 70.3089 67.7179 70.1654 70.3125 69.8828V76.0938C65.1229 76.7186 59.8771 76.7186 54.6875 76.0938ZM79.6875 74.0234V68.1641C82.0315 67.5715 84.319 66.7741 86.5234 65.7812C87.3967 65.4068 88.2448 64.9762 89.0625 64.4922V67.1875C89.0625 69.0625 85.8203 71.9531 79.6875 74.0234Z" fill="#161D39"/>
</svg>
