<svg width="100" height="100" viewBox="0 0 100 100" fill="none" xmlns="http://www.w3.org/2000/svg">
<path d="M80.9356 19.0898C76.8803 14.9945 72.0558 11.7407 66.7393 9.51546C61.4227 7.29024 55.7189 6.13743 49.9555 6.12324C44.192 6.10906 38.4826 7.23378 33.1551 9.43281C27.8277 11.6318 22.9872 14.8618 18.9119 18.9372C14.8365 23.0126 11.6065 27.853 9.40748 33.1805C7.20845 38.5079 6.08373 44.2174 6.09791 49.9808C6.1121 55.7442 7.26491 61.4481 9.49013 66.7646C11.7154 72.0812 14.9691 76.9057 19.0645 80.9609C23.1198 85.0563 27.9443 88.3101 33.2608 90.5353C38.5774 92.7605 44.2812 93.9134 50.0447 93.9276C55.8081 93.9417 61.5175 92.817 66.845 90.618C72.1724 88.419 77.0129 85.189 81.0883 81.1136C85.1636 77.0382 88.3936 72.1978 90.5926 66.8703C92.7917 61.5429 93.9164 55.8334 93.9022 50.07C93.888 44.3066 92.7352 38.6027 90.51 33.2862C88.2848 27.9696 85.031 23.1451 80.9356 19.0898ZM12.5001 50.0254C12.4987 46.7065 12.9387 43.4021 13.8087 40.1992C15.2422 43.2852 17.3243 45.9512 18.7403 49.1172C20.5704 53.1875 25.4844 52.0586 27.6544 55.625C29.5801 58.791 27.5235 62.7949 28.9649 66.1074C30.0118 68.5117 32.4805 69.0371 34.1837 70.7949C35.9239 72.5684 35.8868 74.9981 36.1524 77.3106C36.4521 80.0276 36.9383 82.7208 37.6075 85.3711C37.6075 85.3906 37.6075 85.4121 37.6231 85.4317C23.0079 80.2988 12.5001 66.3672 12.5001 50.0254ZM50.0001 87.5254C47.9058 87.5247 45.8152 87.3497 43.7501 87.002C43.7715 86.4727 43.7813 85.9785 43.834 85.6348C44.3086 82.5293 45.8633 79.4922 47.961 77.168C50.0333 74.875 52.8731 73.3242 54.6231 70.7227C56.3379 68.1836 56.8516 64.7656 56.1446 61.7988C55.1036 57.416 49.1485 55.9531 45.9376 53.5762C44.0919 52.209 42.4493 50.0957 40.0254 49.9238C38.9083 49.8457 37.9727 50.0859 36.8653 49.8008C35.8497 49.5371 35.0528 48.9902 33.9708 49.1328C31.9493 49.3984 30.6739 51.5586 28.502 51.2656C26.4415 50.9902 24.3184 48.5781 23.8497 46.6152C23.2481 44.0918 25.2442 43.2734 27.3829 43.0488C28.2754 42.9551 29.2774 42.8535 30.1348 43.1816C31.2637 43.5996 31.7969 44.7051 32.8106 45.2637C34.711 46.3066 35.0958 44.6406 34.8047 42.9531C34.3692 40.4258 33.8614 39.3965 36.1153 37.6563C37.6778 36.457 39.0137 35.5898 38.7637 33.4355C38.6153 32.1699 37.9219 31.5977 38.5684 30.3379C39.0587 29.3789 40.4044 28.5137 41.2813 27.9414C43.545 26.4648 50.9786 26.5742 47.9415 22.4414C47.0489 21.2285 45.4024 19.0605 43.8399 18.7637C41.8868 18.3945 41.0196 20.5742 39.6583 21.5352C38.252 22.5293 35.5137 23.6582 34.1055 22.1211C32.211 20.0527 35.3614 19.375 36.0586 17.9297C36.3809 17.2559 36.0586 16.3203 35.5157 15.4395C36.2201 15.1426 36.9363 14.8672 37.6641 14.6133C38.1203 14.9502 38.6614 15.1531 39.2266 15.1992C40.5333 15.2852 41.7657 14.5781 42.9063 15.4687C44.1719 16.4453 45.084 17.6797 46.7637 17.9844C48.3887 18.2793 50.1094 17.332 50.5118 15.668C50.7559 14.6562 50.5118 13.5879 50.2774 12.543C57.5821 12.585 64.7135 14.7726 70.7852 18.834C70.3946 18.6855 69.9278 18.7031 69.3516 18.9707C68.1661 19.5215 66.4864 20.9238 66.3477 22.3145C66.1895 23.8926 68.5176 24.1152 69.6231 24.1152C71.2833 24.1152 72.9649 23.373 72.4297 21.4551C72.1973 20.623 71.8809 19.7578 71.3712 19.2344C72.5966 20.0847 73.7705 21.0069 74.8868 21.9961C74.8692 22.0137 74.8516 22.0293 74.834 22.0488C73.709 23.2207 72.4024 24.1484 71.6329 25.5742C71.0899 26.5781 70.4786 27.0547 69.379 27.3145C68.7735 27.457 68.0821 27.5098 67.5743 27.916C66.1602 29.0293 66.9649 31.7051 68.3047 32.5078C69.9981 33.5215 72.5098 33.0449 73.7872 31.5977C74.7852 30.4648 75.3731 28.498 77.168 28.5C77.9583 28.4984 78.7174 28.8078 79.2813 29.3613C80.0235 30.1309 79.877 30.8496 80.0352 31.8105C80.3145 33.5176 81.8204 32.5918 82.7364 31.7305C83.4041 32.9188 84.0065 34.1426 84.5411 35.3965C83.5333 36.8477 82.7325 38.4297 80.3086 36.7383C78.8575 35.7246 77.9649 34.2539 76.1426 33.7969C74.5508 33.4062 72.92 33.8125 71.3477 34.084C69.5606 34.3945 67.4415 34.5312 66.086 35.8848C64.7754 37.1895 64.0821 38.9355 62.6876 40.2461C59.9903 42.7852 58.8516 45.5566 60.5977 49.1465C62.2774 52.5977 65.7911 54.4707 69.5821 54.2246C73.3067 53.9766 77.1758 51.8164 77.0684 57.2285C77.0294 59.1445 77.4297 60.4707 78.0176 62.25C78.5626 63.8906 78.5254 65.4805 78.6504 67.1738C78.7693 69.1568 79.0793 71.1236 79.5762 73.0469C76.0754 77.5543 71.5908 81.2019 66.4648 83.7112C61.3389 86.2205 55.7072 87.5252 50.0001 87.5254Z" fill="#161D39"/>
</svg>
