<svg width="648" height="648" viewBox="0 0 648 648" fill="none" xmlns="http://www.w3.org/2000/svg">
<g clip-path="url(#clip0_5_1558)">
<path d="M648 324C648 345.63 645.88 366.77 641.83 387.21C640.57 393.62 639.11 399.96 637.47 406.23C634.23 418.65 630.26 430.77 625.62 442.56C624.99 444.18 624.34 445.79 623.67 447.4C622.02 451.41 620.29 455.38 618.48 459.3C617.52 461.4 616.53 463.49 615.51 465.57C611.7 473.42 607.57 481.1 603.14 488.58C598.11 497.1 592.7 505.38 586.92 513.37C576.58 527.71 565.09 541.17 552.59 553.6C494 611.95 413.21 648 324 648C234.38 648 153.25 611.61 94.6 552.8C82.51 540.68 71.37 527.61 61.3201 513.7C49.73 497.69 39.5701 480.57 31.03 462.53C29.62 459.57 28.26 456.58 26.95 453.57C26.78 453.2 26.63 452.84 26.47 452.47C24.46 447.84 22.5701 443.15 20.78 438.41C19.1799 434.17 17.6599 429.88 16.24 425.55C14.14 419.19 12.23 412.75 10.53 406.22C9.15004 400.96 7.90004 395.64 6.79005 390.28C2.75 370.87 0.44995 350.83 0.07007 330.32C0.02002 328.22 0 326.11 0 324C0 314.53 0.40991 305.16 1.19995 295.9C1.47998 292.68 1.80005 289.47 2.16992 286.28C6.26001 251 16.02 217.45 30.51 186.56C34.24 178.61 38.28 170.84 42.62 163.26C58.6799 135.21 78.8101 109.79 102.21 87.82C105.48 84.74 108.81 81.74 112.21 78.81C169 29.7 243.03 0 324 0C502.94 0 648 145.06 648 324Z" fill="#A4A4A4"/>
<path d="M489.5 233.047H477.389V319.032H489.5V233.047Z" fill="#3F3D56"/>
<path d="M489.53 231.96L489.09 233.05L484.97 243.18L477.39 240.1L466.49 235.68C398.839 213.965 313.339 202.854 280.77 160.3L278.65 159.44C265.021 170.748 255.557 171.409 254.82 149.76L252.7 148.9C197.115 160.329 149.045 127.694 102.21 87.8199C105.48 84.7399 108.81 81.7399 112.21 78.8099C178.055 80.6559 234.205 92.0804 256.2 137.25L258.33 138.12L283.92 148.5L286.06 149.37C342.903 137.383 406.764 180.59 470.69 224.31L489.53 231.96Z" fill="#3F3D56"/>
<path d="M586.92 513.37C576.58 527.71 565.09 541.17 552.59 553.6C408.54 556.41 234.95 556.06 94.6 552.8C82.51 540.68 71.37 527.61 61.3201 513.7C90.47 512.89 121.43 512.25 153.54 511.75C166.25 511.54 179.15 511.37 192.19 511.21C205.14 511.07 218.23 510.94 231.42 510.83H231.43C351.28 509.86 479.48 510.75 586.92 513.37Z" fill="white"/>
<path d="M637.47 406.23C634.23 418.65 630.26 430.77 625.62 442.56C624.99 444.18 624.34 445.79 623.67 447.4H608.18V406.23H637.47Z" fill="#3F3D56"/>
<path d="M625.62 442.56C624.99 444.18 624.34 445.79 623.67 447.4C622.02 451.41 620.29 455.38 618.48 459.3C617.52 461.4 616.53 463.49 615.51 465.57C611.7 473.42 607.57 481.1 603.14 488.58C448.361 506.614 305.118 510.936 184.32 488.58V442.56H625.62Z" fill="#3F3D56"/>
<path d="M618.48 387.84V459.3C617.52 461.4 616.53 463.49 615.51 465.57C571.55 444.107 531.362 446.667 493.74 465.57V308.74C524.196 290.532 555.177 287.535 586.99 308.74L616.22 382.15L618.48 387.84Z" fill="white"/>
<path d="M513.115 318.426H566.401V371.712C548.832 381.097 531.066 380.897 513.115 371.712C503.859 353.95 503.859 336.188 513.115 318.426Z" fill="#A4A4A4"/>
<path d="M606.366 372.318C599.362 380.202 586.52 377.38 572.457 372.318V319.032H586.99L606.366 372.318Z" fill="white"/>
<path d="M527.648 401.988H515.538V424.998H527.648V401.988Z" fill="#3F3D56"/>
<path d="M582.75 352.941H583.356C589.71 352.941 594.861 358.092 594.861 364.446V364.446C594.861 370.8 589.71 375.951 583.356 375.951H582.75V352.941Z" fill="#3F3D56"/>
<path d="M132.241 442.558H132.847C139.201 442.558 144.352 447.709 144.352 454.063V454.063C144.352 460.417 139.201 465.568 132.847 465.568H132.241V442.558Z" fill="#3F3D56"/>
<path d="M641.83 387.21C640.57 393.62 639.11 399.96 637.47 406.23C634.23 418.65 630.26 430.77 625.62 442.56C624.99 444.18 624.34 445.79 623.67 447.4C622.02 451.41 620.29 455.38 618.48 459.3C617.52 461.4 616.53 463.49 615.51 465.57H610L609.35 447.4L609.18 442.56L608.18 414.37L606.97 380.33L616.22 382.15L641.83 387.21Z" fill="white"/>
<path d="M192.188 532.781C217.604 532.781 238.208 512.178 238.208 486.762C238.208 461.346 217.604 440.742 192.188 440.742C166.772 440.742 146.168 461.346 146.168 486.762C146.168 512.178 166.772 532.781 192.188 532.781Z" fill="#1B1A26"/>
<path d="M192.188 510.983C205.565 510.983 216.409 500.139 216.409 486.762C216.409 473.385 205.565 462.541 192.188 462.541C178.811 462.541 167.967 473.385 167.967 486.762C167.967 500.139 178.811 510.983 192.188 510.983Z" fill="#838383"/>
<path d="M497.372 437.109H497.372V286.939H471.94C466.894 296.449 464.332 310.911 463.42 328.662C460.302 389.325 410.634 437.109 349.89 437.109H131.636V448.008H469.776C470.493 455.468 471.222 462.952 471.94 470.413L497.372 470.412V448.008H497.372V437.109Z" fill="#3F3D56"/>
<path d="M300.714 386.837L307.545 381.817L349.504 438.913L342.673 443.933C311.161 440.044 297.322 420.885 300.714 386.837Z" fill="#3F3D56"/>
<path d="M370.634 193.782L378.38 197.227L294.585 443.968L286.839 440.523C297.224 372.909 329.131 249.203 370.634 193.782Z" fill="#3F3D56"/>
<path d="M590.017 374.74H577.906V379.584H590.017V374.74Z" fill="#3F3D56"/>
<path d="M481.247 303.625C481.253 303.535 481.257 303.454 481.242 303.37C481.169 302.697 480.573 302.224 479.91 302.299L472.103 303.176L197.912 313.089L195.487 313.356C194.958 313.413 194.531 313.814 194.436 314.346C194.318 315.005 194.754 315.632 195.414 315.75L475.386 350.648C476.054 350.717 476.641 350.223 476.71 349.555L481.247 303.625ZM204.04 314.836L471.659 305.657L478.687 304.873L474.425 348.018L204.04 314.836Z" fill="#3F3D56"/>
<path d="M283.92 148.5L278.65 159.44L207.23 307.5L254.82 149.76L258.33 138.12L256.2 137.25L252.7 148.9L203.6 312.74L203.08 315.12C202.96 315.64 203.2 316.17 203.68 316.43C204.26 316.76 205 316.55 205.32 315.96L280.77 160.3L286.06 149.37L283.92 148.5Z" fill="#3F3D56"/>
<path d="M50.78 316.13L47.27 283L46.3101 273.87L41.35 226.99L38.3401 198.5C38.28 197.89 37.76 197.42 37.14 197.42C36.52 197.42 36 197.88 35.9299 198.49L32.6599 226.99L26.6599 279.39L25.5501 289.08L22.3401 317.08L17.87 356.11C17.86 356.15 17.86 356.19 17.86 356.24C17.85 356.9 18.39 357.45 19.0601 357.46L33.62 357.6L53.8301 357.79H53.8401C53.88 357.79 53.9199 357.78 53.96 357.78C54.63 357.71 55.11 357.11 55.0401 356.45L50.78 316.13H50.78ZM38.8 355.22L33.01 355.17L20.4299 355.05L24.0701 323.27V323.26L28.0701 288.38L29.1799 278.68L35.11 226.99L37.0901 209.69L38.9199 226.99L43.9499 274.53L44.9099 283.66L48.4099 316.79L52.49 355.35L38.8 355.22H38.8Z" fill="#3F3D56"/>
<path d="M230.04 363.97L223.52 367.53L204.89 372.74L189.27 377.12L155.35 386.61L139.73 390.98C91.1815 383.016 66.6667 399.78 43.49 417.92L27.87 422.29L16.24 425.55C14.14 419.19 12.23 412.75 10.53 406.22C9.15003 400.96 7.90003 395.64 6.79004 390.28C2.75 370.87 0.44995 350.83 0.07007 330.32C0.02002 328.22 0 326.11 0 324C0 314.53 0.40991 305.16 1.19995 295.9C1.47998 292.68 1.80005 289.47 2.16992 286.28L26.6599 279.39L29.1799 278.68L43.95 274.53L46.3101 273.87L83.8 263.32C112.623 261.284 134.579 273.802 153.28 293.22C153.28 293.22 179.9 285.27 199.49 299.3C205.69 303.75 211.18 310.4 214.9 320.21L218.11 329.46L230.04 363.97H230.04Z" fill="#EC6834"/>
<path d="M171.486 412.877C190.246 412.877 205.453 397.669 205.453 378.91C205.453 360.151 190.246 344.943 171.486 344.943C152.727 344.943 137.52 360.151 137.52 378.91C137.52 397.669 152.727 412.877 171.486 412.877Z" fill="#1B1A26"/>
<path d="M171.486 396.787C181.36 396.787 189.363 388.783 189.363 378.91C189.363 369.037 181.36 361.033 171.486 361.033C161.613 361.033 153.609 369.037 153.609 378.91C153.609 388.783 161.613 396.787 171.486 396.787Z" fill="#838383"/>
<path d="M44.05 424.09C44.05 435.33 38.5901 445.29 30.1699 451.47C29.14 452.23 28.0601 452.93 26.9499 453.57C26.78 453.2 26.63 452.84 26.47 452.47C24.46 447.84 22.5701 443.15 20.78 438.41C19.1799 434.17 17.6599 429.88 16.24 425.55C14.14 419.19 12.23 412.75 10.53 406.22C9.15003 400.96 7.90003 395.64 6.79004 390.28C7.87 390.17 8.96997 390.12 10.0801 390.12C26.73 390.12 40.5901 402.1 43.49 417.92C43.86 419.92 44.05 421.98 44.05 424.09Z" fill="#1B1A26"/>
<path d="M27.96 424.09C27.96 429.95 25.14 435.15 20.78 438.41C19.1799 434.17 17.6599 429.88 16.24 425.55C14.14 419.19 12.23 412.75 10.53 406.22C19.6 406.44 26.98 413.4 27.87 422.29C27.9299 422.88 27.96 423.48 27.96 424.09H27.96Z" fill="#838383"/>
<path d="M129.263 294.164L24.1626 323.582L15.3076 291.945C28.5409 281.61 54.5776 277.011 82.3356 273.183L129.263 294.164V294.164Z" fill="#A4A4A4"/>
<path d="M11.29 327.18L0.07007 330.32C0.02002 328.22 0 326.11 0 324C0 314.53 0.40991 305.16 1.19995 295.9L2.43994 295.55C13.4009 302.742 16.1717 313.36 11.29 327.18Z" fill="#A4A4A4"/>
<path d="M36.1292 345.675L30.767 347.175L33.6187 357.364L38.9809 355.863L36.1292 345.675Z" fill="#3F3D56"/>
<path d="M218.105 329.462C208.882 333.153 198.413 328.669 194.721 319.445C191.901 312.398 193.807 304.339 199.487 299.303C205.687 303.749 211.185 310.397 214.903 320.21L218.105 329.462H218.105Z" fill="#A61717"/>
<path d="M30.51 186.56C34.24 178.61 38.28 170.84 42.62 163.26V226.99H30.51V186.56Z" fill="#3F3D56"/>
<path d="M483.445 252.424C492.809 252.424 500.4 244.833 500.4 235.47C500.4 226.106 492.809 218.515 483.445 218.515C474.081 218.515 466.49 226.106 466.49 235.47C466.49 244.833 474.081 252.424 483.445 252.424Z" fill="#3F3D56"/>
</g>
<defs>
<clipPath id="clip0_5_1558">
<rect width="648" height="648" fill="white"/>
</clipPath>
</defs>
</svg>
