<svg width="60" height="60" viewBox="0 0 60 60" fill="none" xmlns="http://www.w3.org/2000/svg">
<path d="M30 22.1895C25.6993 22.1895 22.1895 25.6993 22.1895 30C22.1895 34.3008 25.6993 37.8106 30 37.8106C34.3008 37.8106 37.8106 34.3008 37.8106 30C37.8106 25.6993 34.3008 22.1895 30 22.1895ZM53.4258 30C53.4258 26.7657 53.4551 23.5606 53.2735 20.3321C53.0918 16.5821 52.2364 13.2539 49.4942 10.5118C46.7461 7.76371 43.4239 6.9141 39.6739 6.73246C36.4395 6.55082 33.2344 6.58011 30.0059 6.58011C26.7715 6.58011 23.5664 6.55082 20.3379 6.73246C16.5879 6.9141 13.2598 7.76956 10.5176 10.5118C7.76957 13.2598 6.91996 16.5821 6.73832 20.3321C6.55667 23.5664 6.58597 26.7715 6.58597 30C6.58597 33.2285 6.55667 36.4395 6.73832 39.668C6.91996 43.418 7.77542 46.7461 10.5176 49.4883C13.2657 52.2364 16.5879 53.086 20.3379 53.2676C23.5723 53.4493 26.7774 53.42 30.0059 53.42C33.2403 53.42 36.4453 53.4493 39.6739 53.2676C43.4239 53.086 46.752 52.2305 49.4942 49.4883C52.2422 46.7403 53.0918 43.418 53.2735 39.668C53.461 36.4395 53.4258 33.2344 53.4258 30ZM30 42.0176C23.3496 42.0176 17.9825 36.6504 17.9825 30C17.9825 23.3496 23.3496 17.9825 30 17.9825C36.6504 17.9825 42.0176 23.3496 42.0176 30C42.0176 36.6504 36.6504 42.0176 30 42.0176ZM42.5098 20.2969C40.9571 20.2969 39.7032 19.043 39.7032 17.4903C39.7032 15.9375 40.9571 14.6836 42.5098 14.6836C44.0625 14.6836 45.3164 15.9375 45.3164 17.4903C45.3169 17.859 45.2446 18.2241 45.1037 18.5649C44.9629 18.9056 44.7561 19.2152 44.4954 19.4759C44.2347 19.7366 43.9251 19.9433 43.5844 20.0842C43.2437 20.2251 42.8785 20.2974 42.5098 20.2969Z" fill="#F7F7F7"/>
</svg>
