<svg width="10" height="10" viewBox="0 0 10 10" fill="none" xmlns="http://www.w3.org/2000/svg">
<g clip-path="url(#clip0_773_2)">
<path d="M9.12495 7.81388L9.0305 7.73054C8.76257 7.49182 8.52805 7.21806 8.33328 6.91665C8.12056 6.50069 7.99307 6.04644 7.95828 5.58054V4.20832C7.96012 3.47655 7.69467 2.76929 7.21182 2.21942C6.72896 1.66956 6.06193 1.31495 5.33606 1.22221V0.863875C5.33606 0.765524 5.29699 0.671201 5.22744 0.601657C5.1579 0.532112 5.06357 0.493042 4.96522 0.493042C4.86687 0.493042 4.77255 0.532112 4.70301 0.601657C4.63346 0.671201 4.59439 0.765524 4.59439 0.863875V1.22776C3.87502 1.32719 3.21605 1.68395 2.73954 2.23196C2.26303 2.77997 2.00126 3.48211 2.00272 4.20832V5.58054C1.96793 6.04644 1.84044 6.50069 1.62772 6.91665C1.4363 7.21731 1.20556 7.49103 0.941612 7.73054L0.847168 7.81388V8.59721H9.12495V7.81388Z" fill="white"/>
<path d="M4.25562 8.88892C4.27997 9.06499 4.36722 9.22631 4.50125 9.34307C4.63528 9.45983 4.80703 9.52415 4.98478 9.52415C5.16254 9.52415 5.33429 9.45983 5.46831 9.34307C5.60234 9.22631 5.68959 9.06499 5.71395 8.88892H4.25562Z" fill="white"/>
</g>
<defs>
<clipPath id="clip0_773_2">
<rect width="10" height="10" fill="white"/>
</clipPath>
</defs>
</svg>
