<svg width="42" height="42" viewBox="0 0 42 42" fill="none" xmlns="http://www.w3.org/2000/svg">
<path fill-rule="evenodd" clip-rule="evenodd" d="M27.2755 5.25009C27.9318 4.59395 28.8219 4.22534 29.75 4.22534C30.6781 4.22534 31.5681 4.59395 32.2245 5.25009L36.75 9.77559C37.4061 10.4319 37.7747 11.322 37.7747 12.2501C37.7747 13.1782 37.4061 14.0682 36.75 14.7246L33.9745 17.5001L24.5 8.02559L27.2755 5.25009ZM22.0255 10.5001L6.2755 26.2501C5.61908 26.9063 5.2502 27.7964 5.25 28.7246V33.2501C5.25 34.1784 5.61875 35.0686 6.27513 35.725C6.9315 36.3813 7.82174 36.7501 8.75 36.7501H13.2755C14.2037 36.7499 15.0938 36.381 15.75 35.7246L31.5 19.9746L22.0255 10.5001Z" fill="#161D39"/>
</svg>
