<svg width="20" height="20" viewBox="0 0 20 20" fill="none" xmlns="http://www.w3.org/2000/svg">
<path d="M10.0001 1.66669C6.77508 1.66669 4.16675 4.27502 4.16675 7.50002C4.16675 11.875 10.0001 18.3334 10.0001 18.3334C10.0001 18.3334 15.8334 11.875 15.8334 7.50002C15.8334 4.27502 13.2251 1.66669 10.0001 1.66669ZM10.0001 9.58335C9.44755 9.58335 8.91764 9.36386 8.52694 8.97316C8.13624 8.58246 7.91675 8.05255 7.91675 7.50002C7.91675 6.94749 8.13624 6.41758 8.52694 6.02688C8.91764 5.63618 9.44755 5.41669 10.0001 5.41669C10.5526 5.41669 11.0825 5.63618 11.4732 6.02688C11.8639 6.41758 12.0834 6.94749 12.0834 7.50002C12.0834 8.05255 11.8639 8.58246 11.4732 8.97316C11.0825 9.36386 10.5526 9.58335 10.0001 9.58335V9.58335Z" fill="#EC6834"/>
</svg>
